<svg xmlns="http://www.w3.org/2000/svg" xmlns:xlink="http://www.w3.org/1999/xlink" width="97" height="97" viewBox="0 0 97 97"><defs><path id="5pnsa" d="M752 2840.5c0-26.786 21.714-48.5 48.5-48.5s48.5 21.714 48.5 48.5-21.714 48.5-48.5 48.5-48.5-21.714-48.5-48.5z"/><path id="5pnsb" d="M818.255 2823h-10.017c-.928 0-1.68.73-1.68 1.633v.078c0 .779.581 1.454 1.382 1.606.821.155 1.171.54 1.171 1.288v9.551a15.724 15.724 0 0 1-7.266 1.769c-2.27 0-4.428-.48-6.372-1.336v-9.984c0-.747.35-1.132 1.17-1.288.802-.152 1.383-.827 1.383-1.606v-.078c0-.902-.752-1.633-1.68-1.633H786.33c-.928 0-1.68.73-1.68 1.633v.078c0 .779.582 1.454 1.383 1.606.82.155 1.171.54 1.171 1.288v5.52c-4.457-4.641-7.864-4.76-10.054-4.796a4.289 4.289 0 0 0-.33-.003c-2.067.07-3.744 1.7-3.816 3.709a3.852 3.852 0 0 0 1.453 3.162 4.067 4.067 0 0 0 4.65.282 2.324 2.324 0 0 1 1.464-.338c2.475.275 4.84 2.183 6.633 3.871v14.322c0 .747-.35 1.132-1.171 1.287-.801.153-1.382.828-1.382 1.607v.078c0 .902.752 1.632 1.68 1.632h10.016c.928 0 1.68-.73 1.68-1.632v-.078c0-.78-.581-1.454-1.382-1.607-.821-.155-1.171-.54-1.171-1.287v-10.574c2.006.641 4.148.992 6.372.992a20.84 20.84 0 0 0 7.266-1.3v10.882c0 .747-.35 1.132-1.17 1.287-.802.153-1.383.828-1.383 1.607v.078c0 .902.752 1.632 1.68 1.632h10.017c.927 0 1.68-.73 1.68-1.632v-.078c0-.78-.582-1.454-1.383-1.607-.82-.155-1.17-.54-1.17-1.287v-25.73c0-.746.35-1.131 1.17-1.287.801-.152 1.382-.827 1.382-1.606v-.078c0-.902-.752-1.633-1.68-1.633"/></defs><g><g transform="translate(-752 -2792)"><g><use fill="#410099" xlink:href="#5pnsa"/></g><g><g><use fill="#fff" xlink:href="#5pnsb"/></g></g></g></g></svg>