<?xml version="1.0" encoding="UTF-8"?>
<svg width="121px" height="35px" viewBox="0 0 121 35" version="1.1" xmlns="http://www.w3.org/2000/svg" xmlns:xlink="http://www.w3.org/1999/xlink">
    <!-- Generator: Sketch 52.2 (67145) - http://www.bohemiancoding.com/sketch -->
    <title>Logos / Henri S-Positionnement</title>
    <desc>Created with Sketch.</desc>
    <defs>
        <polygon id="path-1" points="4.82508856e-05 0 121 0 121 33.8288739 4.82508856e-05 33.8288739"></polygon>
    </defs>
    <g id="Symbols" stroke="none" stroke-width="1" fill="none" fill-rule="evenodd">
        <g id="UX-/-Menu-principal" transform="translate(-42.000000, -25.000000)">
            <g id="Logos-/-Henri-S-Positionnement">
                <g transform="translate(42.000000, 25.500000)">
                    <g id="Group-3">
                        <mask id="mask-2" fill="white">
                            <use xlink:href="#path-1"></use>
                        </mask>
                        <g id="Clip-2"></g>
                        <path d="M104.987541,30.1261223 C104.280027,29.9727975 103.978367,29.6074599 103.978367,28.9038548 L103.978367,19.724721 C103.978367,17.9554217 104.65269,16.2584535 105.856178,14.9969885 C107.521608,13.2512943 110.109034,11.0636 112.84918,10.7411414 C113.297468,10.6885172 113.764242,10.8026446 114.163794,11.0629503 C114.511249,11.2896892 114.889794,11.4514599 115.288296,11.5437146 C116.362381,11.7925427 117.501167,11.5125299 118.341865,10.7937656 C119.211763,10.0500968 119.68778,8.95191847 119.647447,7.78119236 C119.582535,5.86636433 118.185574,4.47669554 116.218483,4.24670828 C113.69702,3.95196943 109.576087,4.60663185 104.272464,12.335893 C104.231501,12.3952306 104.158186,12.420135 104.091174,12.3982624 C104.023952,12.3763898 103.978367,12.3120713 103.978367,12.239307 L103.978367,10.5932306 C103.978367,9.89244076 103.819134,9.40171465 103.492266,9.0926828 C103.227369,8.84212229 102.865419,8.71889936 102.391923,8.71889936 C102.302433,8.71889936 102.208952,8.72323057 102.11127,8.73210955 L95.9913167,9.14942166 C95.3459833,9.1936 94.8403462,9.75037707 94.8403462,10.4171669 L94.8403462,11.0772433 C94.8403462,11.7760841 95.3978705,12.3460713 96.083117,12.3475873 C96.9000771,12.3493197 97.3426934,12.5842879 97.3426934,13.8182497 L97.3426934,27.0371032 C97.3426934,28.7431669 96.0011899,30.1261223 94.3464729,30.1261223 L94.3462628,30.1261223 C92.6913358,30.1261223 91.3498323,28.7431669 91.3498323,27.0371032 L91.3498323,19.3799567 C91.3498323,12.883358 88.456966,9.72525605 82.5056986,9.72525605 C81.3160753,9.72525605 79.058249,10.258428 76.844117,11.9553962 C76.6955979,12.0690904 76.4846882,11.9590777 76.4846882,11.7682879 L76.4846882,10.5221987 C76.4846882,9.82140892 76.3258757,9.33046624 75.9985875,9.02143439 C75.6834833,8.72344713 75.2320441,8.60542166 74.617591,8.66086115 L68.4974278,9.07838981 C67.8520944,9.12235159 67.3464573,9.67912866 67.3464573,10.3459185 L67.3466674,11.0027465 C67.3466674,11.6992051 67.8890667,12.2785045 68.56465,12.2763389 C69.3975753,12.2737401 69.8490146,12.5037274 69.8490146,13.7470013 L69.8490146,28.9038548 C69.8490146,29.6156892 69.5343306,29.9827592 68.7969868,30.1308866 C68.077499,30.2759822 67.5552663,30.9196 67.5552663,31.6613197 L67.5552663,31.7360331 C67.5552663,32.5951287 68.2306396,33.2915873 69.0641951,33.2915873 L77.2178306,33.2915873 C78.050966,33.2915873 78.7265493,32.5951287 78.7265493,31.7362497 L78.7265493,31.6552561 C78.7265493,30.9118038 78.2196517,30.2831287 77.4936517,30.1261223 C76.786558,29.9727975 76.4846882,29.6074599 76.4846882,28.9038548 L76.4844781,17.0006064 C76.4844781,16.8819312 76.5338444,16.7686701 76.6216535,16.6915745 C77.8955146,15.5723898 79.5552733,14.5233707 81.3589295,14.5233707 C83.6186465,14.5233707 84.7662559,15.4820841 84.7662559,20.7237146 L84.7662559,29.2260968 C84.7662559,30.3543771 85.1912264,31.3719949 85.9628115,32.0920586 C86.8035094,32.8766573 88.0240128,33.2915873 89.491558,33.2915873 L104.711299,33.2915873 C105.544435,33.2915873 106.220018,32.5951287 106.220018,31.7362497 L106.220018,31.6552561 C106.220018,30.9118038 105.71312,30.2829121 104.987541,30.1261223 M58.806084,18.7651414 L50.5543462,18.7651414 C50.3226396,18.7651414 50.1424,18.5594089 50.1617264,18.3211924 C50.4892247,14.2678293 51.9032021,12.2226318 55.1086517,12.2226318 C58.0239955,12.2226318 59.4871292,14.0120713 59.7688323,17.6964153 C59.8127368,18.2724662 59.3667594,18.7651414 58.806084,18.7651414 M55.1086517,8.28447898 C52.0912142,8.28447898 49.0989851,9.49353631 46.8985076,11.6019694 C45.1822403,13.2463134 43.1361639,16.1934854 43.1361639,20.8954471 C43.1361639,24.5050777 44.4690545,27.8119567 46.8896847,30.2071159 C49.250025,32.5425045 52.4279556,33.8288739 55.838433,33.8288739 C59.7711431,33.8288739 62.3728531,32.0660713 63.8740094,30.5661732 C64.220624,30.2201096 64.4479191,29.7564535 64.4703965,29.2596637 C64.4956049,28.7070013 64.2937281,28.1881223 63.9095111,27.8100076 C63.2143913,27.1261096 62.1554313,27.1035873 61.4300615,27.741358 C59.9906656,29.0069376 58.3832142,29.6219694 56.5163271,29.6219694 C54.4998705,29.6219694 52.8510354,28.8471159 51.7477507,27.3814344 C51.7477507,27.3814344 50.6608514,26.1834217 50.2442837,23.006479 C50.2121431,22.7617656 50.3957438,22.5419567 50.6350128,22.5419567 L63.2658583,22.5419567 C65.1256031,22.5419567 66.4553427,20.9731924 66.4553427,18.6382369 C66.4553427,13.1226573 61.1531899,8.28447898 55.1086517,8.28447898 M40.656084,-4.33121019e-05 L31.6569191,-4.33121019e-05 C30.8235736,-4.33121019e-05 30.1477802,0.696415287 30.1477802,1.55572739 L30.1477802,1.6302242 C30.1477802,2.37216051 30.6702229,3.01556178 31.3897108,3.16065732 C32.1272646,3.30878471 32.4417385,3.67585478 32.4417385,4.38768917 L32.4417385,13.4890777 C30.4939747,14.562135 28.2729104,15.174135 25.9140406,15.174135 C23.8742663,15.174135 21.9361656,14.7180586 20.1892281,13.9014089 L20.1892281,4.38768917 C20.1892281,3.67585478 20.5039122,3.30878471 21.2412559,3.16065732 C21.9609538,3.01556178 22.4831865,2.37216051 22.4831865,1.6302242 L22.4831865,1.55572739 C22.4831865,0.696415287 21.8076031,-4.33121019e-05 20.9740476,-4.33121019e-05 L11.9748826,-4.33121019e-05 C11.1415372,-4.33121019e-05 10.4659538,0.696415287 10.4659538,1.55572739 L10.4659538,1.6302242 C10.4659538,2.37216051 10.9881865,3.01556178 11.7078844,3.16065732 C12.4452281,3.30878471 12.7599122,3.67585478 12.7599122,4.38768917 L12.7599122,9.64729427 C8.75535833,5.22534522 5.6948566,5.11273376 3.72713611,5.07743439 C3.62903368,5.07310318 3.53051111,5.07093758 3.43135833,5.07461911 C1.57371424,5.14153631 0.0675163194,6.69427516 0.00239479167,8.60910318 C-0.0377284722,9.7798293 0.438288889,10.8780076 1.30797639,11.6216764 C2.14867431,12.3404408 3.28746076,12.6206701 4.36154583,12.3716255 C4.76004757,12.2793707 5.13859271,12.1176 5.48625764,11.8908611 C5.88559965,11.6305554 6.35258403,11.516428 6.80066215,11.5690522 C9.02487743,11.8306573 11.1482594,13.6486828 12.7599122,15.2575108 L12.7599122,28.9038548 C12.7599122,29.6156892 12.4452281,29.9827592 11.7078844,30.1308866 C10.9881865,30.2759822 10.4659538,30.9196 10.4659538,31.6613197 L10.4659538,31.7360331 C10.4659538,32.5951287 11.1415372,33.2915873 11.9748826,33.2915873 L20.9740476,33.2915873 C21.8076031,33.2915873 22.4831865,32.5951287 22.4831865,31.7360331 L22.4831865,31.6613197 C22.4831865,30.9196 21.9609538,30.2759822 21.2412559,30.1308866 C20.5039122,29.9827592 20.1892281,29.6156892 20.1892281,28.9038548 L20.1892281,18.8288102 C21.991834,19.4397274 23.9154399,19.7734471 25.9140406,19.7734471 C28.2124104,19.7734471 30.4124677,19.3336127 32.4417385,18.5345045 L32.4417385,28.9038548 C32.4417385,29.6156892 32.1272646,29.9827592 31.3897108,30.1308866 C30.6702229,30.2759822 30.1477802,30.9196 30.1477802,31.6613197 L30.1477802,31.7360331 C30.1477802,32.5951287 30.8235736,33.2915873 31.6569191,33.2915873 L40.656084,33.2915873 C41.4896396,33.2915873 42.1650128,32.5951287 42.1650128,31.7360331 L42.1650128,31.6613197 C42.1650128,30.9196 41.6427802,30.2759822 40.9232924,30.1308866 C40.1857385,29.9827592 39.8712646,29.6156892 39.8712646,28.9038548 L39.8712646,4.38768917 C39.8712646,3.67585478 40.1857385,3.30878471 40.9232924,3.16065732 C41.6427802,3.01556178 42.1650128,2.37216051 42.1650128,1.6302242 L42.1650128,1.55572739 C42.1650128,0.696415287 41.4896396,-4.33121019e-05 40.656084,-4.33121019e-05 M119.767186,30.1261223 C119.060093,29.9727975 118.758433,29.6074599 118.758433,28.9038548 L118.758433,15.4270777 C118.758433,14.7072306 118.192086,14.1233834 117.493815,14.1233834 L116.284235,14.1233834 C113.985865,14.1233834 112.122759,16.0444917 112.122759,18.4138803 L112.122759,28.9038548 C112.122759,29.6156892 111.808075,29.9827592 111.070522,30.1311032 C110.350824,30.2759822 109.828801,30.9196 109.828801,31.6613197 L109.828801,31.7360331 C109.828801,32.5951287 110.504384,33.2915873 111.33773,33.2915873 L119.490945,33.2915873 C120.324501,33.2915873 121.000084,32.5951287 121.000084,31.7360331 L121.000084,31.6550395 C121.000084,30.9115873 120.493186,30.2829121 119.767186,30.1261223" id="Fill-1" fill="#FFFFFF" mask="url(#mask-2)"></path>
                    </g>
                </g>
            </g>
        </g>
    </g>
</svg>